<svg id="Layer_1" data-name="Layer 1" xmlns="http://www.w3.org/2000/svg" viewBox="0 0 500 500"><defs><style>.cls-1{fill:#fff;}</style></defs><path class="cls-1" d="M125.57,212.23q-24.13,0-38.45,16.71T72.81,273.87q0,26.33,13.58,41.94t36.67,15.62q27.69,0,40.85-17.66t13.17-44.71q0-28-14.94-42.41T125.57,212.23Zm24.91,88.85q-6.94,14.16-25.64,14.15-17,0-24.86-11.9t-7.84-29.78q0-18.58,7.84-31.76t25.07-13.16q19.42,0,27.37,15.46,5,9.82,5,25.49A70.43,70.43,0,0,1,150.48,301.08Z"/><rect class="cls-1" x="197.45" y="245.87" width="101.34" height="17.55"/><rect class="cls-1" x="197.45" y="283.47" width="101.34" height="17.55"/><path class="cls-1" d="M369.51,212.23q-24.13,0-38.44,16.71t-14.31,44.93q0,26.33,13.58,41.94T367,331.43q27.67,0,40.85-17.66T421,269.06q0-28-14.94-42.41T369.51,212.23Zm24.92,88.85q-6.94,14.16-25.64,14.15-17,0-24.87-11.9t-7.84-29.78q0-18.58,7.84-31.76T369,228.63q19.44,0,27.37,15.46,5,9.82,5,25.49A70.57,70.57,0,0,1,394.43,301.08Z"/><path class="cls-1" d="M480.67,273.87a6.58,6.58,0,0,1-6.06-3.35q-2-3.33-2-10.13v-16.3l-38.76,11.39V271l25.91-7.62q0,9.93,5.48,16.09A17.63,17.63,0,0,0,479,285.67q13.17,0,21-14.83l-9-6.17Q486.84,273.87,480.67,273.87Z"/><path class="cls-1" d="M228,204.07q-30.67-19.57-46.07-25.75-24.19-9.75-55.19-9.75a138.4,138.4,0,0,0-17.38,1.16,146.78,146.78,0,0,0-33.09,8.16,143.32,143.32,0,0,0-17.91,8q-6.54,3.65-30.14,18.75L16.29,173.88H0L59.65,327.36H76L32.35,215.19c17.16-8.93,30.67-15.14,40.16-18.34a152.5,152.5,0,0,1,17.64-4.64v7.06H157v-8.91a144.51,144.51,0,0,1,24,5.44c6.91,2.26,16.68,6.46,28.9,12.35H197.45V225.7H298.79V208.15H228Z"/></svg>